<svg width="200" height="200" viewBox="0 0 200 200" fill="none" xmlns="http://www.w3.org/2000/svg">
  <circle cx="100" cy="100" r="90" fill="#4A90E2"/>
  <path d="M65 75C65 70.5817 68.5817 67 73 67H127C131.418 67 135 70.5817 135 75V125C135 129.418 131.418 133 127 133H73C68.5817 133 65 129.418 65 125V75Z" fill="white"/>
  <path d="M120 100C120 111.046 111.046 120 100 120C88.9543 120 80 111.046 80 100C80 88.9543 88.9543 80 100 80C111.046 80 120 88.9543 120 100Z" fill="#4A90E2"/>
  <path d="M50 90C50 85.5817 53.5817 82 58 82H70C74.4183 82 78 85.5817 78 90V110C78 114.418 74.4183 118 70 118H58C53.5817 118 50 114.418 50 110V90Z" fill="white"/>
  <path d="M122 90C122 85.5817 125.582 82 130 82H142C146.418 82 150 85.5817 150 90V110C150 114.418 146.418 118 142 118H130C125.582 118 122 114.418 122 110V90Z" fill="white"/>
  <path d="M65 140C65 135.582 68.5817 132 73 132H127C131.418 132 135 135.582 135 140V145C135 149.418 131.418 153 127 153H73C68.5817 153 65 149.418 65 145V140Z" fill="white"/>
</svg> 