<svg width="400" height="300" viewBox="0 0 400 300" fill="none" xmlns="http://www.w3.org/2000/svg">
  <!-- 배경 -->
  <rect width="400" height="300" rx="20" fill="#F0F7FF"/>
  
  <!-- 좌측 인물 (수어 표현) -->
  <circle cx="120" cy="100" r="40" fill="#4A90E2"/>
  <path d="M120 150C103.431 150 90 136.569 90 120V110C90 93.4315 103.431 80 120 80V150Z" fill="#4A90E2"/>
  
  <!-- 우측 인물 (대화 상대) -->
  <circle cx="280" cy="100" r="40" fill="#6C7A89"/>
  <path d="M280 150C296.569 150 310 136.569 310 120V110C310 93.4315 296.569 80 280 80V150Z" fill="#6C7A89"/>
  
  <!-- 손 동작 표현 -->
  <path d="M140 180C140 175.582 143.582 172 148 172H170C174.418 172 178 175.582 178 180V200C178 204.418 174.418 208 170 208H148C143.582 208 140 204.418 140 200V180Z" fill="#4A90E2"/>
  <path d="M150 190C150 187.239 152.239 185 155 185H163C165.761 185 168 187.239 168 190V198C168 200.761 165.761 203 163 203H155C152.239 203 150 200.761 150 198V190Z" fill="white"/>
  
  <!-- 대화 버블 -->
  <path d="M230 120C230 115.582 233.582 112 238 112H322C326.418 112 330 115.582 330 120V150C330 154.418 326.418 158 322 158H238C233.582 158 230 154.418 230 150V120Z" fill="white"/>
  <path d="M230 130L220 145L230 140V130Z" fill="white"/>
  
  <!-- 텍스트 표현 (수어 번역) -->
  <rect x="240" y="122" width="80" height="8" rx="4" fill="#E0E0E0"/>
  <rect x="240" y="138" width="60" height="8" rx="4" fill="#E0E0E0"/>
  
  <!-- 하단 스마트폰 아이콘 -->
  <rect x="170" y="220" width="60" height="100" rx="10" fill="#333333"/>
  <rect x="175" y="230" width="50" height="70" rx="2" fill="#F0F7FF"/>
  <circle cx="200" cy="310" r="8" fill="#F0F7FF"/>
</svg> 